<svg width="109" height="71" viewBox="0 0 109 71" fill="none" xmlns="http://www.w3.org/2000/svg">
<path d="M61.3148 17.75C78.1068 17.75 87.6302 27.0628 89.0131 38.3045H89.4354C100.24 38.3045 109 45.6234 109 54.6523C109 63.6811 100.24 71 89.4354 71H33.1942C22.3901 71 13.6296 63.6811 13.6296 54.6523C13.6296 45.6234 22.3901 38.3045 33.1942 38.3045H33.6165C35.013 26.9859 44.5228 17.75 61.3148 17.75ZM43.5487 2.06229e-07C53.4672 2.06229e-07 62.1187 4.899 66.3899 12.0996C64.7061 11.9203 63.0112 11.8314 61.3148 11.8333C45.0337 11.8333 33.1669 19.5664 28.9298 31.2755L28.5074 32.5417L28.1941 33.6481L27.0701 33.8256C22.9562 34.5534 19.1138 36.1542 15.8854 38.4853C12.6571 40.8164 10.1433 43.8054 8.5682 47.1854C5.32295 45.4681 2.79288 42.8966 1.34577 39.8447C-0.101333 36.7928 -0.390045 33.4196 0.521608 30.2154C1.43326 27.0112 3.49776 24.1431 6.41499 22.0279C9.33223 19.9127 12.9501 18.6608 16.7428 18.4541L18.2551 18.4245C19.3056 13.2612 22.4166 8.58432 27.0421 5.215C31.6676 1.84568 37.5118 -0.000712462 43.5487 2.06229e-07V2.06229e-07Z" fill="black"/>
</svg>
