<svg width="74" height="74" viewBox="0 0 74 74" fill="none" xmlns="http://www.w3.org/2000/svg">
<rect width="74" height="74" rx="10" fill="#ECEDAE"/>
<path fill-rule="evenodd" clip-rule="evenodd" d="M17.422 17.7934C19.8715 15.2887 22.7973 13.2994 26.0272 11.9425C29.2571 10.5856 32.7258 9.88851 36.2292 9.89235C48.0254 9.89235 58.0018 17.6433 61.3597 28.3281H44.1302C43.4317 28.3281 42.7618 28.6056 42.2679 29.0995C41.774 29.5934 41.4965 30.2633 41.4965 30.9618C41.4965 31.6603 41.774 32.3302 42.2679 32.8241C42.7618 33.318 43.4317 33.5955 44.1302 33.5955H62.4343C62.5212 34.4646 62.566 35.3416 62.566 36.2292C62.566 50.775 50.775 62.566 36.2292 62.566C32.7258 62.5699 29.257 61.873 26.0271 60.516C22.7972 59.1591 19.8714 57.1697 17.422 54.6649H33.5955C34.294 54.6649 34.9639 54.3874 35.4578 53.8935C35.9517 53.3996 36.2292 52.7297 36.2292 52.0312C36.2292 51.3327 35.9517 50.6629 35.4578 50.1689C34.9639 49.675 34.294 49.3976 33.5955 49.3976H13.4162C12.4526 47.7322 11.6754 45.9657 11.0986 44.1302H38.8628C39.5613 44.1302 40.2312 43.8527 40.7251 43.3588C41.219 42.8649 41.4965 42.195 41.4965 41.4965C41.4965 40.798 41.219 40.1281 40.7251 39.6342C40.2312 39.1403 39.5613 38.8628 38.8628 38.8628H10.024C9.46369 33.3694 10.6517 27.8393 13.4189 23.0608H36.2292C36.9277 23.0608 37.5975 22.7833 38.0915 22.2894C38.5854 21.7955 38.8628 21.1256 38.8628 20.4271C38.8628 19.7286 38.5854 19.0587 38.0915 18.5648C37.5975 18.0709 36.9277 17.7934 36.2292 17.7934H17.422ZM30.9618 28.3281C30.2633 28.3281 29.5934 28.6056 29.0995 29.0995C28.6056 29.5934 28.3281 30.2633 28.3281 30.9618C28.3281 31.6603 28.6056 32.3302 29.0995 32.8241C29.5934 33.318 30.2633 33.5955 30.9618 33.5955H36.2292C36.9277 33.5955 37.5975 33.318 38.0915 32.8241C38.5854 32.3302 38.8628 31.6603 38.8628 30.9618C38.8628 30.2633 38.5854 29.5934 38.0915 29.0995C37.5975 28.6056 36.9277 28.3281 36.2292 28.3281H30.9618ZM24.9254 32.8264C24.4315 33.3202 23.7617 33.5975 23.0634 33.5975C22.365 33.5975 21.6953 33.3202 21.2014 32.8264H21.1987C20.7046 32.3326 20.4268 31.6627 20.4265 30.964C20.4264 30.6181 20.4944 30.2755 20.6267 29.9559C20.759 29.6363 20.9529 29.3458 21.1974 29.1011C21.4419 28.8564 21.7323 28.6623 22.0518 28.5298C22.3714 28.3973 22.7139 28.329 23.0598 28.3289C23.7585 28.3287 24.4286 28.6059 24.9228 29.0998C25.1676 29.3444 25.3619 29.6348 25.4944 29.9546C25.627 30.2743 25.6952 30.617 25.6952 30.9631C25.6952 31.3092 25.627 31.6519 25.4944 31.9717C25.3619 32.2914 25.1676 32.5818 24.9228 32.8264H24.9254ZM44.9045 43.3612C45.1474 43.6127 45.4381 43.8133 45.7594 43.9514C46.0807 44.0894 46.4263 44.1621 46.776 44.1651C47.1257 44.1681 47.4725 44.1015 47.7962 43.9691C48.1198 43.8367 48.4139 43.6411 48.6612 43.3938C48.9085 43.1465 49.104 42.8525 49.2364 42.5288C49.3689 42.2051 49.4355 41.8583 49.4325 41.5086C49.4294 41.1589 49.3568 40.8133 49.2187 40.492C49.0807 40.1707 48.8801 39.8801 48.6285 39.6371V39.6345C48.1347 39.1403 47.4648 38.8626 46.7661 38.8623C46.0675 38.8621 45.3974 39.1394 44.9032 39.6332C44.409 40.127 44.1312 40.7969 44.131 41.4956C44.1307 42.1942 44.408 42.8643 44.9019 43.3585L44.9045 43.3612Z" fill="black"/>
</svg>
