<svg width="65" height="65" viewBox="0 0 65 65" fill="none" xmlns="http://www.w3.org/2000/svg">
<path fill-rule="evenodd" clip-rule="evenodd" d="M20.2177 2.887C23.3946 2.74075 24.4075 2.70825 32.5 2.70825C40.5925 2.70825 41.6054 2.74346 44.7796 2.887C47.9537 3.03054 50.1204 3.537 52.0162 4.27096C54.0014 5.02117 55.8025 6.19388 57.2921 7.71054C58.8087 9.19742 59.9787 10.9958 60.7262 12.9837C61.4629 14.8795 61.9666 17.0462 62.1129 20.2149C62.2591 23.3972 62.2916 24.4101 62.2916 32.4999C62.2916 40.5924 62.2564 41.6053 62.1129 44.7822C61.9694 47.951 61.4629 50.1176 60.7262 52.0135C59.9787 54.0016 58.8068 55.803 57.2921 57.292C55.8025 58.8087 54.0014 59.9787 52.0162 60.7262C50.1204 61.4628 47.9537 61.9666 44.785 62.1128C41.6054 62.2591 40.5925 62.2916 32.5 62.2916C24.4075 62.2916 23.3946 62.2564 20.2177 62.1128C17.0489 61.9693 14.8823 61.4628 12.9864 60.7262C10.9983 59.9786 9.19699 58.8066 7.7079 57.292C6.19226 55.8042 5.01937 54.0038 4.27102 52.0162C3.53706 50.1203 3.03331 47.9537 2.88706 44.7849C2.74081 41.6026 2.70831 40.5897 2.70831 32.4999C2.70831 24.4074 2.74352 23.3945 2.88706 20.2203C3.0306 17.0462 3.53706 14.8795 4.27102 12.9837C5.02048 10.996 6.19426 9.19556 7.7106 7.70784C9.19759 6.19253 10.9971 5.01966 12.9837 4.27096C14.8796 3.537 17.0462 3.03325 20.215 2.887H20.2177ZM44.5385 8.2495C41.3969 8.10596 40.4544 8.07617 32.5 8.07617C24.5456 8.07617 23.6031 8.10596 20.4614 8.2495C17.5554 8.38221 15.9791 8.867 14.9283 9.27596C13.5389 9.81763 12.545 10.4595 11.5023 11.5022C10.5139 12.4638 9.75318 13.6344 9.27602 14.9283C8.86706 15.9791 8.38227 17.5553 8.24956 20.4614C8.10602 23.603 8.07623 24.5455 8.07623 32.4999C8.07623 40.4543 8.10602 41.3968 8.24956 44.5385C8.38227 47.4445 8.86706 49.0208 9.27602 50.0716C9.75269 51.3635 10.5137 52.5362 11.5023 53.4976C12.4637 54.4862 13.6364 55.2472 14.9283 55.7239C15.9791 56.1328 17.5554 56.6176 20.4614 56.7503C23.6031 56.8939 24.5429 56.9237 32.5 56.9237C40.4571 56.9237 41.3969 56.8939 44.5385 56.7503C47.4446 56.6176 49.0208 56.1328 50.0716 55.7239C51.461 55.1822 52.455 54.5403 53.4977 53.4976C54.4862 52.5362 55.2473 51.3635 55.7239 50.0716C56.1329 49.0208 56.6177 47.4445 56.7504 44.5385C56.8939 41.3968 56.9237 40.4543 56.9237 32.4999C56.9237 24.5455 56.8939 23.603 56.7504 20.4614C56.6177 17.5553 56.1329 15.9791 55.7239 14.9283C55.1823 13.5389 54.5404 12.5449 53.4977 11.5022C52.536 10.5139 51.3654 9.7532 50.0716 9.27596C49.0208 8.867 47.4446 8.38221 44.5385 8.2495ZM28.6948 41.6839C30.8199 42.5685 33.1862 42.6879 35.3896 42.0217C37.5929 41.3554 39.4967 39.9449 40.7756 38.031C42.0545 36.1171 42.6293 33.8185 42.4018 31.5279C42.1742 29.2373 41.1585 27.0967 39.5281 25.4718C38.4887 24.4331 37.232 23.6377 35.8484 23.143C34.4647 22.6483 32.9886 22.4665 31.5263 22.6108C30.064 22.755 28.6518 23.2216 27.3915 23.9771C26.1312 24.7326 25.0541 25.7582 24.2377 26.9799C23.4213 28.2017 22.8859 29.5892 22.6701 31.0427C22.4543 32.4962 22.5635 33.9795 22.9898 35.3857C23.416 36.7919 24.1488 38.0862 25.1353 39.1752C26.1217 40.2643 27.3374 41.121 28.6948 41.6839ZM21.6721 21.672C23.094 20.2501 24.7821 19.1221 26.64 18.3526C28.4978 17.583 30.489 17.1869 32.5 17.1869C34.5109 17.1869 36.5021 17.583 38.36 18.3526C40.2179 19.1221 41.906 20.2501 43.3279 21.672C44.7498 23.0939 45.8778 24.782 46.6473 26.6399C47.4169 28.4977 47.813 30.489 47.813 32.4999C47.813 34.5108 47.4169 36.5021 46.6473 38.3599C45.8778 40.2178 44.7498 41.9059 43.3279 43.3278C40.4562 46.1996 36.5612 47.8129 32.5 47.8129C28.4387 47.8129 24.5438 46.1996 21.6721 43.3278C18.8003 40.4561 17.187 36.5612 17.187 32.4999C17.187 28.4387 18.8003 24.5437 21.6721 21.672ZM51.2091 19.4674C51.5615 19.135 51.8436 18.7353 52.0387 18.2919C52.2338 17.8486 52.338 17.3705 52.3451 16.8862C52.3521 16.4018 52.2619 15.921 52.0798 15.4721C51.8977 15.0232 51.6274 14.6155 51.2849 14.2729C50.9423 13.9304 50.5346 13.6601 50.0857 13.478C49.6368 13.2959 49.156 13.2057 48.6716 13.2127C48.1873 13.2198 47.7093 13.324 47.2659 13.5191C46.8225 13.7142 46.4228 13.9963 46.0904 14.3487C45.4439 15.034 45.09 15.9442 45.1038 16.8862C45.1175 17.8282 45.4978 18.7277 46.1639 19.3939C46.8301 20.06 47.7296 20.4403 48.6716 20.4541C49.6136 20.4678 50.5239 20.1139 51.2091 19.4674Z" fill="white"/>
</svg>
