<svg width="41" height="55" viewBox="0 0 41 55" fill="none" xmlns="http://www.w3.org/2000/svg">
<g clip-path="url(#clip0_478_179)">
<path d="M23.0305 53.625C28.5078 46.7285 41 30.0137 41 20.625C41 9.23828 31.8177 0 20.5 0C9.18229 0 0 9.23828 0 20.625C0 30.0137 12.4922 46.7285 17.9695 53.625C19.2828 55.2686 21.7172 55.2686 23.0305 53.625ZM20.5 27.5C16.731 27.5 13.6667 24.417 13.6667 20.625C13.6667 16.833 16.731 13.75 20.5 13.75C24.269 13.75 27.3333 16.833 27.3333 20.625C27.3333 24.417 24.269 27.5 20.5 27.5Z" fill="#FFE666"/>
</g>
<defs>
<clipPath id="clip0_478_179">
<rect width="41" height="55" fill="white"/>
</clipPath>
</defs>
</svg>
