<svg width="117" height="104" viewBox="0 0 117 104" fill="none" xmlns="http://www.w3.org/2000/svg">
<path d="M65.8052 39C59.6509 39.0001 53.7027 40.9715 49.0506 44.5528C44.3985 48.1341 41.3539 53.0856 40.4747 58.5H40.2187C35.3703 58.5 30.7204 60.212 27.292 63.2595C23.8636 66.307 21.9375 70.4402 21.9375 74.75C21.9375 79.0598 23.8636 83.193 27.292 86.2405C30.7204 89.2879 35.3703 91 40.2187 91H91.4062C96.2547 91 100.905 89.2879 104.333 86.2405C107.761 83.193 109.687 79.0598 109.687 74.75C109.687 70.4402 107.761 66.307 104.333 63.2595C100.905 60.212 96.2547 58.5 91.4062 58.5H91.1357C90.2567 53.0867 87.2131 48.1361 82.5625 44.5549C77.9119 40.9738 71.9655 39.0017 65.8125 39H65.8052ZM64.2549 18.33C64.4806 17.9531 64.6206 17.5404 64.6668 17.1155C64.713 16.6906 64.6647 16.2617 64.5245 15.8534C64.3842 15.4451 64.1549 15.0653 63.8496 14.7357C63.5442 14.4062 63.1689 14.1333 62.7449 13.9327C62.3209 13.7321 61.8567 13.6077 61.3786 13.5666C60.9006 13.5255 60.4181 13.5685 59.9587 13.6932C59.4994 13.8178 59.0721 14.0216 58.7014 14.2931C58.3306 14.5645 58.0237 14.8981 57.798 15.275L54.6829 20.4945C54.2271 21.2556 54.1302 22.1465 54.4133 22.9711C54.6965 23.7957 55.3367 24.4866 56.1929 24.8917C57.0491 25.2969 58.0514 25.383 58.9791 25.1313C59.9068 24.8796 60.6841 24.3106 61.1398 23.5495L64.2549 18.3235V18.33ZM36.6722 13.4745C36.5315 13.066 36.3017 12.6862 35.9959 12.3567C35.6901 12.0272 35.3142 11.7545 34.8898 11.5541C34.4654 11.3537 34.0008 11.2296 33.5224 11.1888C33.0441 11.1481 32.5614 11.1914 32.1019 11.3165C31.6424 11.4415 31.2151 11.6458 30.8444 11.9177C30.4737 12.1895 30.1669 12.5236 29.9415 12.9008C29.716 13.278 29.5764 13.6911 29.5305 14.1163C29.4846 14.5415 29.5334 14.9705 29.6741 15.379L31.6266 21.034C31.9214 21.8465 32.5641 22.5232 33.4157 22.9179C34.2673 23.3126 35.2594 23.3937 36.1776 23.1435C37.0959 22.8934 37.8665 22.3321 38.323 21.581C38.7795 20.8299 38.8852 19.9493 38.6173 19.1295L36.6722 13.4745ZM21.9375 45.5C21.9375 49.426 23.2464 53.079 25.4914 56.1405C28.1751 54.457 31.2463 53.2155 34.5589 52.559C36.4565 47.4737 39.887 42.9485 44.477 39.4759C49.067 36.0033 54.6407 33.7164 60.5914 32.864C57.6831 29.822 53.7945 27.6468 49.4509 26.6321C45.1073 25.6175 40.5181 25.8122 36.303 27.1901C32.0879 28.5681 28.4502 31.0627 25.8812 34.3371C23.3121 37.6115 21.9356 41.5079 21.9375 45.5V45.5ZM13.3087 27.391C12.8848 27.1904 12.4205 27.066 11.9425 27.0249C11.4644 26.9838 10.9819 27.0268 10.5226 27.1514C10.0632 27.2761 9.63595 27.4799 9.26521 27.7513C8.89447 28.0227 8.58751 28.3564 8.36184 28.7332C8.13617 29.1101 7.99622 29.5228 7.94998 29.9477C7.90373 30.3727 7.9521 30.8015 8.09232 31.2099C8.23254 31.6182 8.46186 31.9979 8.7672 32.3275C9.07254 32.657 9.4479 32.9299 9.87187 33.1305L15.7438 35.8995C16.6001 36.3046 17.6023 36.3908 18.53 36.1391C19.4577 35.8873 20.235 35.3183 20.6907 34.5572C21.1465 33.7961 21.2434 32.9053 20.9602 32.0806C20.6771 31.256 20.0369 30.5651 19.1807 30.16L13.3014 27.391H13.3087ZM16.3507 56.4005C17.2648 56.1384 18.0261 55.5671 18.4702 54.8102C18.9142 54.0532 19.0054 53.1713 18.724 52.3551C18.4425 51.5389 17.8111 50.8539 16.9661 50.4481C16.1211 50.0423 15.1305 49.9483 14.2082 50.1865L7.84631 51.9155C7.38089 52.0357 6.94701 52.2369 6.56988 52.5075C6.19274 52.7781 5.8799 53.1126 5.64953 53.4916C5.41916 53.8707 5.27586 54.2866 5.22797 54.7153C5.18009 55.144 5.22856 55.5769 5.37058 55.9888C5.5126 56.4007 5.74533 56.7834 6.05524 57.1146C6.36514 57.4458 6.74604 57.719 7.17578 57.9182C7.60552 58.1174 8.07552 58.2386 8.55846 58.2749C9.04139 58.3112 9.52762 58.2618 9.98887 58.1295L16.3507 56.4005Z" fill="black"/>
</svg>
