<svg width="32" height="31" viewBox="0 0 32 31" fill="none" xmlns="http://www.w3.org/2000/svg">
<path d="M16 3.875C10.422 3.875 5.742 7.58725 4.406 12.5938H6.47C7.746 8.66547 11.53 5.8125 16 5.8125C21.516 5.8125 26 10.1564 26 15.5C26 20.8436 21.516 25.1875 16 25.1875C11.531 25.1875 7.746 22.3345 6.469 18.4062H4.406C5.742 23.4128 10.422 27.125 16 27.125C22.617 27.125 28 21.9102 28 15.5C28 9.08978 22.617 3.875 16 3.875ZM15.344 10.9285L13.906 12.3215L16.187 14.5312H4V16.4688H16.188L13.906 18.6785L15.344 20.0715L19.344 16.1965L20.03 15.5L19.343 14.8035L15.344 10.9285Z" fill="white"/>
</svg>
