<svg width="65" height="65" viewBox="0 0 65 65" fill="none" xmlns="http://www.w3.org/2000/svg">
<path d="M64.0331 13.3711C61.7717 14.3732 59.3423 15.0503 56.7883 15.3563C59.4236 13.7795 61.3951 11.2978 62.335 8.37423C59.8592 9.84483 57.1495 10.88 54.3238 11.4346C52.4235 9.40574 49.9066 8.06095 47.1638 7.60906C44.421 7.15717 41.6057 7.62346 39.155 8.93554C36.7044 10.2476 34.7554 12.3321 33.6108 14.8653C32.4662 17.3985 32.19 20.2388 32.825 22.9451C27.8083 22.6932 22.9007 21.3893 18.4205 19.1179C13.9404 16.8466 9.98791 13.6586 6.81959 9.7609C5.73626 11.6297 5.11334 13.7963 5.11334 16.1038C5.11214 18.1811 5.62368 20.2266 6.6026 22.0587C7.58151 23.8909 8.99753 25.4531 10.725 26.6067C8.72159 26.543 6.76238 26.0016 5.01043 25.0278V25.1903C5.01023 28.1037 6.01802 30.9275 7.8628 33.1826C9.70758 35.4376 12.2757 36.9849 15.1315 37.5619C13.273 38.0649 11.3245 38.139 9.43314 37.7786C10.2389 40.2855 11.8083 42.4776 13.9218 44.0482C16.0353 45.6188 18.5871 46.4891 21.2198 46.5374C16.7506 50.0458 11.2312 51.9489 5.54939 51.9405C4.54292 51.9408 3.5373 51.882 2.53772 51.7644C8.30505 55.4726 15.0186 57.4406 21.8752 57.433C45.0856 57.433 57.7742 38.2092 57.7742 21.5367C57.7742 20.9951 57.7606 20.448 57.7363 19.9063C60.2043 18.1215 62.3348 15.9112 64.0277 13.3792L64.0331 13.3711Z" fill="white"/>
</svg>
