<svg width="112" height="99" viewBox="0 0 112 99" fill="none" xmlns="http://www.w3.org/2000/svg">
<path d="M87.4906 39.1627C91.4176 39.192 95.1787 40.5662 97.9831 42.9963C100.787 45.4263 102.417 48.7229 102.528 52.1929C102.639 55.6628 101.224 59.0356 98.5794 61.6021C95.9352 64.1686 92.2681 65.7288 88.3493 65.9546L87.4159 65.9752L86.8746 66.0041H83.2019C83.7153 67.2828 83.9953 68.6606 83.9953 70.1002C83.9953 76.9642 78.1059 82.5 70.3406 82.5C64.2739 82.5 59.9106 79.9095 57.7966 75.7886C57.302 74.83 57.2412 73.7404 57.6266 72.7434C58.012 71.7464 58.8143 70.9175 59.8691 70.4268C60.9239 69.9361 62.1511 69.8207 63.2991 70.1044C64.447 70.3881 65.4287 71.0493 66.0426 71.9523L66.4999 72.732C67.1533 73.7302 68.2406 74.25 70.3406 74.25C72.8139 74.25 74.6573 72.5175 74.6573 70.1002C74.6573 67.9923 72.8233 66.2392 70.4386 66.0041H13.9999C12.8033 66.0125 11.6487 65.6141 10.7748 64.8914C9.90089 64.1687 9.3745 63.1769 9.30441 62.1208C9.23431 61.0648 9.62585 60.0254 10.3981 59.2173C11.1704 58.4092 12.2644 57.8942 13.4539 57.7788L13.9999 57.7582H69.3419L69.8879 57.7293C70.1819 57.7293 70.4759 57.7376 70.7699 57.7541L86.9259 57.7582L87.2059 57.7376L87.4859 57.7293L88.0879 57.7046C89.0971 57.6103 90.0609 57.2849 90.8842 56.7606C91.7075 56.2363 92.3619 55.5312 92.7826 54.715C93.2034 53.8988 93.376 52.9996 93.2834 52.1064C93.1908 51.2132 92.8362 50.3568 92.2547 49.6218C91.6731 48.8867 90.8846 48.2985 89.9672 47.9152C89.0498 47.5319 88.0351 47.3668 87.0234 47.4361C86.0117 47.5055 85.038 47.8069 84.1984 48.3106C83.3588 48.8144 82.6824 49.503 82.2359 50.3085L81.7833 51.2407C81.2401 52.1709 80.3172 52.8838 79.2015 53.2349C78.0859 53.586 76.8609 53.5491 75.7749 53.1315C74.689 52.714 73.8232 51.9471 73.3531 50.9863C72.883 50.0255 72.8437 48.9427 73.2433 47.9572C74.3157 45.3801 76.2568 43.1558 78.8046 41.5846C81.3523 40.0134 84.3841 39.171 87.4906 39.171V39.1627ZM54.8333 49.5H13.9999C12.8033 49.5083 11.6487 49.11 10.7748 48.3873C9.90089 47.6646 9.3745 46.6727 9.30441 45.6167C9.23431 44.5607 9.62585 43.5213 10.3981 42.7132C11.1704 41.9051 12.2644 41.3901 13.4539 41.2747L13.9999 41.25H54.8333C56.91 41.25 58.9401 40.7056 60.6668 39.6858C62.3935 38.666 63.7393 37.2164 64.534 35.5205C65.3287 33.8246 65.5367 31.9584 65.1315 30.158C64.7264 28.3577 63.7264 26.7039 62.2579 25.4059C60.7894 24.1079 58.9185 23.2239 56.8817 22.8658C54.8449 22.5077 52.7337 22.6915 50.8151 23.394C48.8965 24.0964 47.2566 25.286 46.1028 26.8123C44.9491 28.3386 44.3333 30.1331 44.3333 31.9687C44.3333 33.0627 43.8416 34.1119 42.9664 34.8855C42.0913 35.6591 40.9043 36.0937 39.6666 36.0937C38.4289 36.0937 37.242 35.6591 36.3668 34.8855C35.4916 34.1119 34.9999 33.0627 34.9999 31.9687C34.9994 28.5424 36.1348 25.191 38.2657 22.3289C40.3967 19.4667 43.4297 17.2193 46.99 15.8643C50.5503 14.5093 54.4817 14.1062 58.2984 14.7048C62.115 15.3034 65.6495 16.8775 68.4651 19.2325C71.2806 21.5875 73.2538 24.6201 74.1406 27.9556C75.0274 31.291 74.789 34.7831 73.455 38.0001C72.1209 41.2171 69.7496 44.0181 66.6341 46.0568C63.5187 48.0954 59.7957 49.2824 55.9253 49.4711L54.8333 49.5H13.9999H54.8333Z" fill="black"/>
</svg>
